<svg
  width="24"
  height="24"
  viewBox="0 0 24 24"
  fill="none"
  xmlns="http://www.w3.org/2000/svg"
>
  <path
    fill-rule="evenodd"
    clip-rule="evenodd"
    d="M12.0001 2.00098C6.48664 2.00098 2.0001 6.48752 2.0001 12.001C2.0001 13.9845 2.63513 15.8458 3.78391 17.3448L2.1001 21.9998L6.85668 20.3058C8.31633 21.1926 10.0868 21.701 12.0001 21.701C17.5135 21.701 22.0001 17.2144 22.0001 12.001C22.0001 6.48752 17.5135 2.00098 12.0001 2.00098ZM11.9991 19.701C10.3503 19.701 8.78201 19.2341 7.43991 18.3941L7.1001 18.174L4.1001 19.1298L5.1251 16.1298L4.90542 15.7932C4.01864 14.4631 3.5001 12.7837 3.5001 11.001C3.5001 6.86724 7.02634 3.34098 11.1601 3.34098C15.2938 3.34098 18.8201 6.86724 18.8201 11.001C18.8201 15.1348 15.2938 18.661 11.1601 18.661H11.9991H11.9991Z"
    fill="#25D366"
  />
  <path
    d="M16.131 14.5698C16.048 14.5178 14.568 13.695 14.452 13.646C14.336 13.597 14.221 13.5778 14.105 13.695C13.99 13.812 13.598 14.275 13.482 14.391C13.367 14.507 13.251 14.526 13.135 14.475C13.019 14.424 12.529 14.254 11.89 13.76C11.355 13.353 10.995 12.9218 10.88 12.8058C10.766 12.6898 10.649 12.5748 10.535 12.4588C10.301 12.224 10.104 12.037 9.881 11.715C9.657 11.393 9.719 11.316 9.809 11.225C9.9 11.134 10.013 10.9988 10.062 10.9358C10.111 10.8728 10.13 10.821 10.18 10.705C10.23 10.589 10.278 10.473 10.278 10.356C10.278 10.24 10.278 10.123 10.229 10.072C10.18 10.021 9.875 9.17802 9.774 8.92702C9.674 8.67602 9.564 8.70902 9.455 8.69502C9.346 8.68202 9.23 8.68202 9.04 8.68202C8.85 8.68202 8.642 8.70802 8.473 8.88602C8.304 9.06402 7.951 9.40202 7.951 10.245C7.951 11.089 8.593 11.9988 8.684 12.1138C8.775 12.2288 9.859 13.845 11.481 14.61C13.104 15.3748 13.404 15.2828 13.689 15.2488C13.974 15.215 14.582 14.8748 14.701 14.6928C14.82 14.5108 14.82 14.4228 14.738 14.3708Z"
    fill="#FFF"
  />
</svg>